<svg width="30" height="30" viewBox="0 0 30 30" fill="none" xmlns="http://www.w3.org/2000/svg">
<path d="M21.7213 7.45776C21.9979 7.18767 22.4414 7.19293 22.7115 7.46948C22.9817 7.74607 22.9764 8.18961 22.6998 8.45972L16.0016 14.9998L22.6998 21.5408C22.9761 21.8109 22.9816 22.2545 22.7115 22.531C22.4415 22.8074 21.9979 22.8125 21.7213 22.5427L14.9996 15.9783L8.27893 22.5427C8.00232 22.8124 7.55867 22.8075 7.2887 22.531C7.01877 22.2546 7.02426 21.8109 7.30042 21.5408L13.9977 14.9998L7.30042 8.45972C7.02392 8.18966 7.01876 7.74607 7.2887 7.46948C7.55879 7.19292 8.00234 7.18769 8.27893 7.45776L14.9996 14.0212L21.7213 7.45776Z" fill="white"/>
</svg>
