<svg width="30" height="30" viewBox="0 0 30 30" fill="none" xmlns="http://www.w3.org/2000/svg">
<path d="M21.088 22.9107H8.85192C7.88012 22.9107 7.08948 22.12 7.08948 21.1482V8.91209C7.08948 7.94029 7.88006 7.14966 8.85192 7.14966H13.8532V8.56709H8.85192C8.66165 8.56709 8.50686 8.72183 8.50686 8.91209V21.1482C8.50686 21.3385 8.6616 21.4932 8.85192 21.4932H21.088C21.2783 21.4932 21.4331 21.3385 21.4331 21.1482V16.1494H22.8505V21.1482C22.8504 22.1201 22.0598 22.9107 21.088 22.9107Z" fill="#888888"/>
<path d="M22.9105 12.4508H21.4931V8.50691H17.5611V7.08948H22.2019C22.5933 7.08948 22.9105 7.40678 22.9105 7.7982V12.4508Z" fill="#888888"/>
<path d="M21.6992 7.29763L13.5448 15.452L14.547 16.4543L22.7014 8.29986L21.6992 7.29763Z" fill="#888888"/>
</svg>
