<svg width="20" height="20" viewBox="0 0 20 20" fill="none" xmlns="http://www.w3.org/2000/svg">
<g clip-path="url(#clip0_106_814)">
<path d="M19.4084 8.56169C19.4171 8.56865 19.4278 8.57274 19.4389 8.57339C19.4501 8.57403 19.4611 8.5712 19.4706 8.56529C19.48 8.55938 19.4874 8.55067 19.4917 8.54038C19.496 8.53008 19.497 8.51871 19.4946 8.50782C18.9906 6.97682 18.0094 5.64755 16.6948 4.71492C15.3802 3.78228 13.8013 3.29536 12.1898 3.32552C10.1208 3.2069 8.08219 3.86594 6.47418 5.17326C5.33851 6.16405 4.58966 7.5244 4.35998 9.01391C4.13029 10.5034 4.43456 12.0262 5.219 13.313C3.52649 12.9649 1.93841 12.2272 0.580779 11.1582C0.573636 11.1475 0.562529 11.1401 0.549901 11.1376C0.537273 11.135 0.524157 11.1376 0.513442 11.1448C0.502726 11.1519 0.49529 11.163 0.492764 11.1756C0.490239 11.1883 0.492834 11.2014 0.499977 11.2121C0.925552 12.7312 1.92754 13.7656 3.19349 14.7891C4.52152 15.7736 6.0792 16.4022 7.71858 16.6153C9.0761 16.7607 11.775 16.8739 13.9675 15.08C16.3163 13.1568 17.0543 8.83104 14.6463 6.20757C16.4281 6.51456 18.0825 7.33238 19.4084 8.56169ZM10.2505 12.5912C9.76699 12.5901 9.29467 12.4458 8.89318 12.1764C8.4917 11.907 8.17906 11.5247 7.99478 11.0777C7.8105 10.6307 7.76283 10.1391 7.85781 9.66505C7.95278 9.19099 8.18614 8.75571 8.52839 8.41421C8.87064 8.07271 9.30643 7.84031 9.78071 7.74638C10.255 7.65245 10.7464 7.70119 11.193 7.88646C11.6396 8.07172 12.0213 8.3852 12.2898 8.78728C12.5583 9.18935 12.7016 9.66199 12.7016 10.1455C12.7016 10.4685 12.6376 10.7883 12.5134 11.0864C12.3891 11.3845 12.207 11.6551 11.9776 11.8825C11.7482 12.1099 11.4761 12.2896 11.1769 12.4112C10.8776 12.5329 10.5573 12.594 10.2343 12.5912H10.2505Z" fill="#C3C3C3"/>
</g>
<defs>
<clipPath id="clip0_106_814">
<rect width="19" height="13.5714" fill="white" transform="translate(0.5 3.21429)"/>
</clipPath>
</defs>
</svg>
